<svg width="900" height="720" viewBox="0 0 900 720" fill="none" xmlns="http://www.w3.org/2000/svg">
  <rect width="900" height="720" fill="#EEF4F1"/>
  <rect x="160" y="34" width="250" height="652" rx="48" fill="#FFFDFA" stroke="#9FB0A7" stroke-width="4"/>
  <text x="222" y="78" fill="#17313A" font-family="Segoe UI" font-size="24" font-weight="700">1. Home Screen</text>
  <rect x="187" y="104" width="196" height="34" rx="10" fill="#FFFDF8" stroke="#CBD5D0"/>
  <rect x="196" y="111" width="34" height="20" rx="8" fill="#0E7C6B"/>
  <text x="204" y="126" fill="white" font-family="Segoe UI" font-size="11" font-weight="700">CF</text>
  <text x="245" y="126" fill="#5C6C72" font-family="Segoe UI" font-size="12">CivicFix SA</text>
  <rect x="320" y="112" width="54" height="18" rx="9" fill="#F5E4BA"/>
  <text x="330" y="125" fill="#17313A" font-family="Segoe UI" font-size="11">Updates</text>
  <text x="196" y="168" fill="#17313A" font-family="Segoe UI" font-size="20" font-weight="700">Welcome, Thabo!</text>
  <rect x="196" y="188" width="86" height="34" rx="14" fill="#F3FBF7" stroke="#CBD5D0"/>
  <rect x="292" y="188" width="82" height="34" rx="14" fill="#F3FBF7" stroke="#CBD5D0"/>
  <rect x="196" y="230" width="86" height="34" rx="14" fill="#F3FBF7" stroke="#CBD5D0"/>
  <rect x="292" y="230" width="82" height="34" rx="14" fill="#F3FBF7" stroke="#CBD5D0"/>
  <text x="209" y="209" fill="#17313A" font-family="Segoe UI" font-size="14">Dashboard</text>
  <text x="305" y="202" fill="#17313A" font-family="Segoe UI" font-size="13">Report New</text>
  <text x="319" y="217" fill="#17313A" font-family="Segoe UI" font-size="13">Issue</text>
  <text x="216" y="244" fill="#17313A" font-family="Segoe UI" font-size="13">Track</text>
  <text x="209" y="259" fill="#17313A" font-family="Segoe UI" font-size="13">Existing</text>
  <text x="315" y="244" fill="#17313A" font-family="Segoe UI" font-size="13">Help</text>
  <text x="310" y="259" fill="#17313A" font-family="Segoe UI" font-size="13">Center</text>
  <rect x="196" y="287" width="76" height="44" rx="16" fill="#F5E4BA" stroke="#CBD5D0"/>
  <rect x="286" y="287" width="96" height="44" rx="16" fill="#D8F0E6" stroke="#CBD5D0"/>
  <rect x="238" y="343" width="92" height="44" rx="16" fill="#CDEBDF" stroke="#CBD5D0"/>
  <text x="213" y="314" fill="#143128" font-family="Segoe UI" font-size="14">Pending</text>
  <text x="302" y="314" fill="#143128" font-family="Segoe UI" font-size="14">In Progress</text>
  <text x="260" y="370" fill="#143128" font-family="Segoe UI" font-size="14">Resolved</text>
  <text x="196" y="428" fill="#17313A" font-family="Segoe UI" font-size="16">- Report A</text>
  <text x="196" y="454" fill="#17313A" font-family="Segoe UI" font-size="16">- Report B</text>
  <text x="196" y="480" fill="#17313A" font-family="Segoe UI" font-size="16">- Report C</text>
  <rect x="208" y="538" width="158" height="46" rx="18" fill="#0E7C6B"/>
  <text x="230" y="567" fill="white" font-family="Segoe UI" font-size="16" font-weight="700">Report New Issue</text>

  <rect x="500" y="34" width="250" height="652" rx="48" fill="#FFFDFA" stroke="#9FB0A7" stroke-width="4"/>
  <text x="532" y="78" fill="#17313A" font-family="Segoe UI" font-size="24" font-weight="700">2. Report Issue</text>
  <text x="532" y="128" fill="#17313A" font-family="Segoe UI" font-size="18">&lt; Back</text>
  <rect x="532" y="182" width="140" height="38" rx="16" fill="#D8F0E6" stroke="#CBD5D0"/>
  <text x="560" y="206" fill="#095A4E" font-family="Segoe UI" font-size="16" font-weight="700">Step 1 of 3</text>
  <text x="532" y="252" fill="#17313A" font-family="Segoe UI" font-size="16" font-weight="700">Select issue type *</text>
  <rect x="532" y="266" width="188" height="42" rx="16" fill="white" stroke="#CBD5D0"/>
  <text x="548" y="292" fill="#5C6C72" font-family="Segoe UI" font-size="16">Choose one...</text>
  <text x="532" y="346" fill="#17313A" font-family="Segoe UI" font-size="16" font-weight="700">Upload photo</text>
  <rect x="532" y="360" width="188" height="42" rx="16" fill="white" stroke="#CBD5D0"/>
  <text x="552" y="386" fill="#5C6C72" font-family="Segoe UI" font-size="16">Choose file...</text>
  <text x="532" y="440" fill="#17313A" font-family="Segoe UI" font-size="16" font-weight="700">Add location *</text>
  <rect x="532" y="454" width="188" height="42" rx="16" fill="white" stroke="#0E7C6B" stroke-width="2"/>
  <text x="548" y="480" fill="#5C6C72" font-family="Segoe UI" font-size="15">Auto-detect or enter</text>
  <text x="560" y="497" fill="#5C6C72" font-family="Segoe UI" font-size="15">address manually</text>
  <rect x="548" y="554" width="156" height="50" rx="20" fill="#0E7C6B"/>
  <text x="573" y="585" fill="white" font-family="Segoe UI" font-size="16" font-weight="700">Submit Report</text>

  <text x="64" y="224" fill="#5C6C72" font-family="Segoe UI" font-size="22">Quick access to</text>
  <text x="64" y="252" fill="#5C6C72" font-family="Segoe UI" font-size="22">main features</text>
  <text x="60" y="414" fill="#5C6C72" font-family="Segoe UI" font-size="22">Visibility and</text>
  <text x="60" y="442" fill="#5C6C72" font-family="Segoe UI" font-size="22">feedback</text>
  <text x="768" y="278" fill="#5C6C72" font-family="Segoe UI" font-size="22">Choose</text>
  <text x="768" y="306" fill="#5C6C72" font-family="Segoe UI" font-size="22">category</text>
  <text x="768" y="368" fill="#5C6C72" font-family="Segoe UI" font-size="22">Attach image</text>
  <text x="768" y="458" fill="#5C6C72" font-family="Segoe UI" font-size="22">Set location</text>
</svg>
