<svg width="1280" height="900" viewBox="0 0 1280 900" fill="none" xmlns="http://www.w3.org/2000/svg">
  <rect width="1280" height="900" fill="#EEF4F1"/>
  <rect x="40" y="28" width="1200" height="86" rx="24" fill="#FFFDFA" stroke="#D9E4DE"/>
  <rect x="68" y="49" width="50" height="50" rx="16" fill="#0E7C6B"/>
  <text x="81" y="81" fill="white" font-family="Segoe UI" font-size="24" font-weight="700">CF</text>
  <text x="138" y="64" fill="#5C6C72" font-family="Segoe UI" font-size="16">Community service reporting</text>
  <text x="138" y="92" fill="#1D2A32" font-family="Segoe UI" font-size="28" font-weight="700">CivicFix SA</text>
  <text x="948" y="75" fill="#1D2A32" font-family="Segoe UI" font-size="20" font-weight="600">Dashboard</text>
  <rect x="1054" y="50" width="150" height="38" rx="19" fill="#D8F0E6"/>
  <text x="1085" y="75" fill="#0D5B54" font-family="Segoe UI" font-size="20" font-weight="700">Report Issue</text>

  <rect x="40" y="140" width="1200" height="146" rx="28" fill="#FFFDFA" stroke="#D9E4DE"/>
  <text x="76" y="184" fill="#5C6C72" font-family="Segoe UI" font-size="16">Report Issue Form</text>
  <text x="76" y="222" fill="#1D2A32" font-family="Segoe UI" font-size="36" font-weight="700">Submit a community issue in 3 simple steps</text>
  <text x="76" y="256" fill="#5C6C72" font-family="Segoe UI" font-size="18">This view supports learnability with required fields, helper text, and clearer navigation.</text>
  <rect x="980" y="186" width="198" height="54" rx="27" fill="white" stroke="#0E7C6B" stroke-width="2"/>
  <text x="1028" y="220" fill="#0F766E" font-family="Segoe UI" font-size="20" font-weight="700">Back to Dashboard</text>

  <rect x="214" y="320" width="852" height="564" rx="26" fill="#FFFDFA" stroke="#D9E4DE"/>
  <rect x="256" y="354" width="120" height="40" rx="20" fill="#D8F0E6"/>
  <text x="276" y="380" fill="#0D5B54" font-family="Segoe UI" font-size="18" font-weight="700">Step 1 of 3</text>
  <text x="404" y="380" fill="#5C6C72" font-family="Segoe UI" font-size="17">Fields marked with * are required.</text>

  <text x="256" y="438" fill="#1D2A32" font-family="Segoe UI" font-size="20" font-weight="600">Select issue type *</text>
  <rect x="256" y="452" width="768" height="56" rx="18" fill="white" stroke="#CBD5D0"/>
  <text x="282" y="487" fill="#5C6C72" font-family="Segoe UI" font-size="18">Choose one...</text>
  <text x="256" y="533" fill="#5C6C72" font-family="Segoe UI" font-size="16">Choose the category that best matches the problem.</text>

  <text x="256" y="582" fill="#1D2A32" font-family="Segoe UI" font-size="20" font-weight="600">Upload photo</text>
  <rect x="256" y="596" width="768" height="56" rx="18" fill="white" stroke="#CBD5D0"/>
  <text x="282" y="631" fill="#5C6C72" font-family="Segoe UI" font-size="18">Choose file...</text>
  <text x="256" y="677" fill="#5C6C72" font-family="Segoe UI" font-size="16">Optional: add evidence to help the municipality verify the issue.</text>

  <text x="256" y="726" fill="#1D2A32" font-family="Segoe UI" font-size="20" font-weight="600">Add location *</text>
  <rect x="256" y="740" width="768" height="56" rx="18" fill="white" stroke="#0E7C6B" stroke-width="3"/>
  <text x="282" y="775" fill="#5C6C72" font-family="Segoe UI" font-size="18">Auto-detect or enter address manually</text>
  <text x="256" y="821" fill="#5C6C72" font-family="Segoe UI" font-size="16">Use a street name, landmark, or suburb to improve response time.</text>

  <rect x="256" y="842" width="370" height="68" rx="18" fill="#F7FBF8" stroke="#D9E4DE"/>
  <text x="278" y="870" fill="#17313A" font-family="Segoe UI" font-size="16" font-weight="700">Estimated flow</text>
  <text x="278" y="894" fill="#5C6C72" font-family="Segoe UI" font-size="14">Submit, receive confirmation, then track progress</text>

  <rect x="650" y="842" width="374" height="68" rx="18" fill="#F7FBF8" stroke="#D9E4DE"/>
  <text x="672" y="870" fill="#17313A" font-family="Segoe UI" font-size="16" font-weight="700">Best practice</text>
  <text x="672" y="894" fill="#5C6C72" font-family="Segoe UI" font-size="14">Add a photo and accurate location for faster action</text>

  <text x="256" y="944" fill="#5C6C72" font-family="Segoe UI" font-size="16">Your report stays visible on the dashboard after submission.</text>
  <rect x="810" y="920" width="214" height="56" rx="28" fill="#0E7C6B"/>
  <text x="846" y="955" fill="white" font-family="Segoe UI" font-size="20" font-weight="700">Submit Report</text>
</svg>
